<svg width="600" height="83" viewBox="0 0 600 83" fill="none" xmlns="http://www.w3.org/2000/svg">
    <g clip-path="url(#clip0_335_23)">
        <path
            d="M394.472 69.83C394.64 69.7027 394.711 69.4832 394.648 69.2817C394.584 69.0802 394.401 68.94 394.19 68.9316C370.524 67.9863 350.956 51.0723 345.927 28.6468C345.88 28.4405 345.709 28.2856 345.499 28.2599C345.289 28.2343 345.086 28.3434 344.992 28.5324C342.757 32.9959 341.5 38.0349 341.5 43.3666C341.5 61.6647 356.305 76.5 374.57 76.5C382.041 76.5 388.935 74.017 394.472 69.83ZM385.702 7.37174C385.865 7.225 385.913 6.98907 385.821 6.78996C385.729 6.59085 385.518 6.47509 385.3 6.50452C369.149 8.69068 356.699 22.5578 356.699 39.338V39.3386C356.699 39.6148 356.923 39.8386 357.199 39.8386H357.199C361.559 39.8386 365.399 42.0695 367.644 45.4571C367.765 45.6399 367.991 45.7225 368.202 45.6605C368.412 45.5986 368.558 45.4067 368.56 45.1873C368.753 30.1717 375.332 16.6997 385.702 7.37174ZM383.748 58.5846C383.832 58.7679 384.018 58.8826 384.22 58.8756C384.421 58.8686 384.599 58.7413 384.67 58.5526C386.861 52.7522 388.06 46.4638 388.06 39.896C388.06 33.637 386.971 27.6318 384.973 22.0608C384.91 21.8864 384.756 21.7609 384.573 21.7347C384.389 21.7084 384.207 21.7857 384.098 21.9355C378.135 30.1334 374.475 40.121 374.07 50.942C374.061 51.1925 374.238 51.4113 374.485 51.4535C378.61 52.1592 382.049 54.887 383.748 58.5846Z"
            fill="white" stroke="white" stroke-linejoin="round" />
        <path
            d="M350.485 70.5636C345.142 70.056 339.8 69.5432 334.458 69.0304C284.137 64.1997 233.848 59.3722 183.45 59.0209C105.75 58.4787 27.875 68.5999 -11.0625 73.6604L-50 78.721V108H650V80.8898L611.062 81.0706C572.125 81.2513 494.25 81.6128 416.549 76.1907C408.312 75.6166 400.078 74.9776 391.847 74.2933C390.459 74.9168 389.032 75.4678 387.57 75.9416C397.174 76.7567 406.786 77.5151 416.41 78.1859C494.185 83.6131 572.119 83.2513 611.059 83.0706L648 82.8991V106H-48V80.4779L-10.8047 75.6438C28.1378 70.5825 105.889 60.4798 183.436 61.0209C233.756 61.3716 283.876 66.1841 334.132 71.0094C340.879 71.6573 347.628 72.3053 354.381 72.9428C353.037 72.2185 351.737 71.4237 350.485 70.5636Z"
            fill="white" />
        <path
            d="M343.581 65.3686C328.966 63.441 314.363 61.2543 299.77 58.9975C294.2 58.1361 288.633 57.2646 283.067 56.3934L283.061 56.3925C249.797 51.1858 216.582 45.9868 183.316 43.009C106.083 36.0603 28.6543 41.142 -10.4541 43.7086L-10.4609 43.7091L-10.4613 43.7091L-48.0331 46.2009C-48.2958 46.2183 -48.5 46.4365 -48.5 46.6998V106C-48.5 106.276 -48.2761 106.5 -48 106.5H648C648.276 106.5 648.5 106.276 648.5 106V49.1642C648.5 49.0169 648.435 48.877 648.322 48.782C648.21 48.687 648.061 48.6465 647.916 48.6714L611.318 54.9257L611.316 54.9259L611.315 54.9261L611.314 54.9263L610.88 55.0001C571.807 61.6498 494.08 74.8764 416.493 71.9611C410.555 71.7403 404.619 71.4254 398.685 71.0288C399.121 70.7309 399.55 70.4251 399.974 70.1117C405.492 70.4698 411.01 70.7565 416.53 70.9618C494.019 73.8735 571.671 60.6586 610.74 54.0097L610.749 54.0081L610.665 53.5152L610.749 54.008L649.5 47.3861V107.5H-49.5V45.296L-10.5002 42.7095C28.6119 40.1426 106.099 35.0578 183.405 42.0131L183.405 42.0131C216.707 44.994 249.963 50.1994 283.232 55.407L283.235 55.4075C302.988 58.4994 322.745 61.5921 342.51 64.2181C342.86 64.6081 343.217 64.9916 343.581 65.3686Z"
            stroke="white" stroke-linejoin="round" />
    </g>
    <defs>
        <clipPath id="clip0_335_23">
            <rect width="600" height="83" fill="white" />
        </clipPath>
    </defs>
</svg>
